# xmcd
#
# Track frame offsets:
#	182
#	11565
#	23620
#	39195
#	51480
#	62912
#	76102
#	87860
#	101060
#	111967
#	123742
#	138292
#	151592
#	162775
#	175370
#	185765
#	197357
#	207722
#	222387
#	234750
#	246772
#	262105
#
# Disc length: 3666 seconds
#
# Revision: 2
# Processed by: cddbd v1.5.2PL0 Copyright (c) Steve Scherf et al.
# Submitted via: audiograbber 1.83.01
#
DISCID=2d0e5016
DTITLE=Various Artist - Country Smash Hits, Vol. 2
DYEAR=1985
DGENRE=Country
TTITLE0=Bobby Bare - Short And Sweet
TTITLE1=Barbara Fairchild - Color My World
TTITLE2=Leroy Van Dyke - Only Oklahoma Away
TTITLE3=Melba Montgomery - Silver Threads And Golden Needles
TTITLE4=Bobby G. Rice - Sugar Shack
TTITLE5=Brandy Barber - Sweetest Love
TTITLE6=Stonewall Jackson - Waterloo
TTITLE7=Wanda Jackson - I Fall To Pieces
TTITLE8=Dave Dudley - Get Me Back To Tennessee
TTITLE9=Wilma Burgess - Misty Blue
TTITLE10=Tom Astor - I Need A Job
TTITLE11=Jody Miller - He's So Fine
TTITLE12=Don Williams and Poso Seco Singers - Storybook Children
TTITLE13=Patti Page - Cross Over The Bridge
TTITLE14=Johnny Russell - Jambalaya (On The Bayou)
TTITLE15=Sammi Smith - Help Me Make It Through The Night
TTITLE16=Faron Young - Hello Walls
TTITLE17=Marion Worth - Shake Me I Rattle
TTITLE18=Tommy Cash - Six White Horses
TTITLE19=Sandy Posey - Sweet Dreams ( Of You)
TTITLE20=Jack Greene - Why Me (Oh Lord)
TTITLE21=Jack Blanchard and Misty Morgan - Humphrey The Camel
EXTD=MCS Ltd.,1985
EXTT0=
EXTT1=
EXTT2=
EXTT3=
EXTT4=
EXTT5=
EXTT6=
EXTT7=
EXTT8=
EXTT9=
EXTT10=
EXTT11=
EXTT12=
EXTT13=
EXTT14=
EXTT15=
EXTT16=
EXTT17=
EXTT18=
EXTT19=
EXTT20=
EXTT21=
PLAYORDER=
